<svg xmlns="http://www.w3.org/2000/svg" viewBox="0 0 1200 600">
  <defs>
    <linearGradient id="sky" x1="0" y1="0" x2="0" y2="1">
      <stop offset="0%" stop-color="#dbe9ff" />
      <stop offset="100%" stop-color="#edf5ff" />
    </linearGradient>
    <linearGradient id="water" x1="0" y1="0" x2="1" y2="0">
      <stop offset="0%" stop-color="#c1d8ff" />
      <stop offset="100%" stop-color="#a6c7ff" />
    </linearGradient>
    <linearGradient id="land" x1="0" y1="0" x2="0" y2="1">
      <stop offset="0%" stop-color="#d7e6ff" />
      <stop offset="100%" stop-color="#b8cee7" />
    </linearGradient>
  </defs>
  <rect width="1200" height="600" fill="url(#sky)" />
  <rect x="0" y="260" width="1200" height="340" fill="url(#water)" opacity="0.8" />
  <g fill="url(#land)" stroke="#86a8d4" stroke-width="1.2" opacity="0.94">
    <path d="M180 190c28-18 62-20 96-14c46 8 75 30 94 62c22 38 32 84 48 128c19 52 60 102 82 46c23-58 16-118 58-172c33-42 90-61 149-58c37 2 72 16 106 30c28 11 55 24 75 47c12 14 19 32 26 50c11 29 26 58 40 86c18 37 45 70 79 91c24 15 52 22 78 30c38 11 78 18 114 34c20 9 38 21 47 41c14 30 4 68-18 90c-28 27-72 29-106 25c-44-6-86-22-125-38c-38-15-78-27-119-19c-26 5-52 18-75 33c-30 19-54 47-80 69c-42 35-94 52-145 40c-34-8-63-29-90-51c-20-16-40-34-56-54c-24-29-46-61-59-97c-11-30-20-60-22-92c-3-44 9-90 45-123z" />
    <path d="M420 365c28-36 74-48 120-50c42-1 85 4 126 12c26 5 52 11 74 24c21 12 36 31 45 54c11 30 11 63 6 93c-9 45-40 88-83 108c-30 14-65 15-97 7c-39-10-74-31-106-57c-26-22-50-48-67-78c-16-30-21-65-14-98c4-18 11-35 23-50z" />
    <path d="M900 160c60-8 117 4 170 28c32 14 60 34 85 59c28 28 52 62 58 101c8 53-4 109-42 148c-29 30-71 45-111 46c-34 2-70-5-100-21c-23-13-42-33-59-53c-18-22-34-45-43-71c-13-39-9-84 13-120c15-25 38-45 68-55z" />
    <path d="M505 435c24-10 52-9 78-5c18 3 35 7 51 14c20 9 37 21 48 39c13 22 16 49 13 74c-5 37-22 71-47 99c-23 25-55 42-88 41c-43-1-81-28-101-66c-12-22-14-48-12-73c3-31 10-62 25-89c10-18 25-31 43-40z" />
  </g>
  <g fill="none" stroke="#ffffff" stroke-opacity="0.4" stroke-width="1">
    <path d="M0 100c300 50 600 50 900 0" />
    <path d="M0 250c300 50 600 50 900 0" />
    <path d="M0 400c300 50 600 50 900 0" />
  </g>
</svg>
